<svg width="1193" height="427" viewBox="0 0 1193 427" fill="none" xmlns="http://www.w3.org/2000/svg">
    <path d="M93.6762 246.065C57.6295 249.212 39.4029 253.594 9.35986 264.667L37.3848 283.753L70.4832 270.224L116.628 257.903L194.662 252.588C173.517 248.492 162.664 246.545 151.9 246.065C137.333 244.029 123.256 243.476 93.6762 246.065Z" fill="#FF7300"/>
    <path d="M134.264 231.328C98.6568 223.488 74.7424 225.675 37.3848 228.428L61.7858 246.065L112.762 240.266L194.662 246.065C171.971 238.873 162.405 235.436 134.264 231.328Z" fill="#FF7300"/>
    <path d="M208.917 114.879C211.43 152.423 226.07 202.336 228.486 209.826C230.902 217.315 225.532 177.268 222.446 158.366C221.589 144.809 221.784 138.375 222.446 127.442L228.486 77.4321L211.816 53.0311C207.592 76.006 206.306 89.2997 208.917 114.879Z" fill="#FF7300"/>
    <path d="M267.141 53.0311L249.021 26.939H246.605L238.149 55.4471C232.369 72.4072 231.119 81.4859 230.902 97.2428C226.793 119.107 226.634 129.976 228.486 147.978C227.976 177.457 231.335 209.545 235.733 205.477L238.149 155.467L241.532 136.864L249.021 101.108L267.141 53.0311Z" fill="#FF7300"/>
    <path d="M313.044 330.381C327.544 358.491 324.374 374.738 305.071 404.309H388.904V318.785C358.845 341.394 342.262 342.828 313.044 330.381Z" fill="#FF7300"/>
    <path d="M93.6762 246.065C57.6295 249.212 39.4029 253.594 9.35986 264.667L37.3848 283.753L70.4832 270.224L116.628 257.903L194.662 252.588C173.517 248.492 162.664 246.545 151.9 246.065C137.333 244.029 123.256 243.476 93.6762 246.065Z" stroke="#FF7300"/>
    <path d="M134.264 231.328C98.6568 223.488 74.7424 225.675 37.3848 228.428L61.7858 246.065L112.762 240.266L194.662 246.065C171.971 238.873 162.405 235.436 134.264 231.328Z" stroke="#FF7300"/>
    <path d="M208.917 114.879C211.43 152.423 226.07 202.336 228.486 209.826C230.902 217.315 225.532 177.268 222.446 158.366C221.589 144.809 221.784 138.375 222.446 127.442L228.486 77.4321L211.816 53.0311C207.592 76.006 206.306 89.2997 208.917 114.879Z" stroke="#FF7300"/>
    <path d="M267.141 53.0311L249.021 26.939H246.605L238.149 55.4471C232.369 72.4072 231.119 81.4859 230.902 97.2428C226.793 119.107 226.634 129.976 228.486 147.978C227.976 177.457 231.335 209.545 235.733 205.477L238.149 155.467L241.532 136.864L249.021 101.108L267.141 53.0311Z" stroke="#FF7300"/>
    <path d="M313.044 330.381C327.544 358.491 324.374 374.738 305.071 404.309H388.904V318.785C358.845 341.394 342.262 342.828 313.044 330.381Z" stroke="#FF7300"/>
    <path d="M129.674 406H213.024L113.487 325.066L291.783 308.879L308.695 129.858L388.18 230.12V144.354L291.783 18C239.536 109.565 229.285 164.705 252.887 271.432C150.902 248.1 101.711 250.77 0.904297 308.879L129.674 406Z" fill="#FF7300" stroke="#FF7300"/>
    <path d="M480.876 148.364H498.745L540.762 250.991H542.211L584.228 148.364H602.097V272H588.092V178.065H586.884L548.248 272H534.725L496.089 178.065H494.882V272H480.876V148.364ZM657.471 274.173C651.595 274.173 646.263 273.067 641.473 270.853C636.684 268.599 632.881 265.359 630.064 261.134C627.246 256.867 625.838 251.716 625.838 245.679C625.838 240.366 626.884 236.06 628.977 232.76C631.07 229.42 633.867 226.804 637.368 224.912C640.87 223.02 644.733 221.612 648.959 220.686C653.225 219.72 657.511 218.955 661.818 218.392C667.452 217.668 672.02 217.124 675.522 216.762C679.063 216.36 681.639 215.696 683.249 214.77C684.899 213.844 685.724 212.234 685.724 209.94V209.457C685.724 203.501 684.094 198.873 680.834 195.572C677.614 192.272 672.725 190.622 666.164 190.622C659.363 190.622 654.03 192.111 650.167 195.089C646.303 198.068 643.586 201.247 642.017 204.628L628.494 199.798C630.909 194.164 634.128 189.777 638.153 186.638C642.218 183.458 646.645 181.245 651.434 179.997C656.264 178.709 661.013 178.065 665.681 178.065C668.66 178.065 672.081 178.428 675.944 179.152C679.848 179.836 683.611 181.265 687.233 183.438C690.896 185.612 693.934 188.892 696.349 193.278C698.764 197.665 699.971 203.541 699.971 210.906V272H685.724V259.443H685C684.034 261.455 682.424 263.609 680.17 265.903C677.916 268.197 674.918 270.149 671.175 271.759C667.432 273.368 662.864 274.173 657.471 274.173ZM659.645 261.375C665.279 261.375 670.028 260.268 673.892 258.055C677.796 255.841 680.734 252.984 682.706 249.482C684.718 245.981 685.724 242.298 685.724 238.435V225.395C685.12 226.119 683.792 226.783 681.74 227.387C679.727 227.951 677.393 228.454 674.737 228.896C672.121 229.299 669.565 229.661 667.07 229.983C664.615 230.265 662.623 230.506 661.093 230.707C657.391 231.19 653.93 231.975 650.71 233.062C647.53 234.108 644.955 235.698 642.983 237.831C641.051 239.924 640.085 242.781 640.085 246.403C640.085 251.354 641.916 255.097 645.578 257.632C649.281 260.127 653.97 261.375 659.645 261.375ZM740.222 216.219V272H725.975V179.273H739.74V193.761H740.947C743.12 189.053 746.42 185.269 750.847 182.412C755.275 179.514 760.99 178.065 767.992 178.065C774.271 178.065 779.764 179.353 784.473 181.929C789.182 184.464 792.844 188.328 795.46 193.52C798.076 198.671 799.384 205.191 799.384 213.08V272H785.137V214.045C785.137 206.761 783.246 201.086 779.463 197.021C775.679 192.916 770.488 190.864 763.887 190.864C759.339 190.864 755.275 191.85 751.693 193.822C748.151 195.794 745.354 198.671 743.301 202.455C741.249 206.238 740.222 210.826 740.222 216.219ZM852.706 274.173C846.83 274.173 841.497 273.067 836.708 270.853C831.918 268.599 828.115 265.359 825.298 261.134C822.481 256.867 821.072 251.716 821.072 245.679C821.072 240.366 822.118 236.06 824.211 232.76C826.304 229.42 829.101 226.804 832.603 224.912C836.104 223.02 839.968 221.612 844.194 220.686C848.46 219.72 852.746 218.955 857.052 218.392C862.687 217.668 867.255 217.124 870.756 216.762C874.298 216.36 876.873 215.696 878.483 214.77C880.133 213.844 880.958 212.234 880.958 209.94V209.457C880.958 203.501 879.328 198.873 876.069 195.572C872.849 192.272 867.959 190.622 861.399 190.622C854.597 190.622 849.265 192.111 845.401 195.089C841.537 198.068 838.821 201.247 837.251 204.628L823.728 199.798C826.143 194.164 829.363 189.777 833.387 186.638C837.452 183.458 841.879 181.245 846.669 179.997C851.498 178.709 856.247 178.065 860.916 178.065C863.894 178.065 867.315 178.428 871.179 179.152C875.083 179.836 878.846 181.265 882.468 183.438C886.13 185.612 889.169 188.892 891.583 193.278C893.998 197.665 895.206 203.541 895.206 210.906V272H880.958V259.443H880.234C879.268 261.455 877.658 263.609 875.404 265.903C873.151 268.197 870.152 270.149 866.409 271.759C862.667 273.368 858.099 274.173 852.706 274.173ZM854.879 261.375C860.513 261.375 865.262 260.268 869.126 258.055C873.03 255.841 875.968 252.984 877.94 249.482C879.952 245.981 880.958 242.298 880.958 238.435V225.395C880.355 226.119 879.027 226.783 876.974 227.387C874.962 227.951 872.627 228.454 869.971 228.896C867.355 229.299 864.8 229.661 862.304 229.983C859.849 230.265 857.857 230.506 856.328 230.707C852.625 231.19 849.164 231.975 845.944 233.062C842.765 234.108 840.189 235.698 838.217 237.831C836.285 239.924 835.319 242.781 835.319 246.403C835.319 251.354 837.15 255.097 840.813 257.632C844.516 260.127 849.204 261.375 854.879 261.375ZM958.639 308.705C951.757 308.705 945.84 307.819 940.89 306.048C935.94 304.318 931.815 302.024 928.514 299.166C925.254 296.349 922.659 293.33 920.727 290.111L932.076 282.142C933.364 283.832 934.994 285.764 936.966 287.938C938.938 290.151 941.635 292.063 945.056 293.673C948.517 295.323 953.044 296.148 958.639 296.148C966.124 296.148 972.302 294.337 977.172 290.714C982.042 287.092 984.477 281.418 984.477 273.69V254.855H983.269C982.223 256.545 980.734 258.638 978.802 261.134C976.91 263.589 974.174 265.782 970.592 267.714C967.05 269.605 962.261 270.551 956.224 270.551C948.738 270.551 942.017 268.78 936.061 265.239C930.144 261.697 925.456 256.545 921.994 249.784C918.574 243.023 916.863 234.812 916.863 225.153C916.863 215.655 918.533 207.385 921.874 200.342C925.214 193.258 929.863 187.785 935.819 183.921C941.776 180.017 948.658 178.065 956.465 178.065C962.502 178.065 967.292 179.071 970.833 181.084C974.415 183.056 977.152 185.31 979.044 187.845C980.975 190.34 982.464 192.393 983.511 194.003H984.96V179.273H998.724V274.656C998.724 282.625 996.913 289.105 993.291 294.095C989.709 299.126 984.879 302.808 978.802 305.143C972.765 307.517 966.044 308.705 958.639 308.705ZM958.156 257.753C963.871 257.753 968.7 256.445 972.644 253.829C976.588 251.213 979.587 247.45 981.639 242.54C983.692 237.63 984.718 231.754 984.718 224.912C984.718 218.231 983.712 212.335 981.7 207.224C979.687 202.112 976.709 198.108 972.765 195.21C968.821 192.312 963.951 190.864 958.156 190.864C952.119 190.864 947.088 192.393 943.063 195.452C939.079 198.51 936.081 202.616 934.068 207.767C932.096 212.919 931.11 218.634 931.11 224.912C931.11 231.351 932.116 237.046 934.129 241.996C936.181 246.906 939.2 250.77 943.184 253.587C947.209 256.364 952.199 257.753 958.156 257.753ZM1063.68 273.932C1054.75 273.932 1047.04 271.96 1040.56 268.016C1034.12 264.031 1029.15 258.477 1025.65 251.354C1022.19 244.19 1020.46 235.859 1020.46 226.361C1020.46 216.863 1022.19 208.491 1025.65 201.247C1029.15 193.963 1034.02 188.288 1040.26 184.223C1046.54 180.118 1053.86 178.065 1062.23 178.065C1067.06 178.065 1071.83 178.87 1076.54 180.48C1081.25 182.09 1085.53 184.706 1089.4 188.328C1093.26 191.91 1096.34 196.659 1098.64 202.575C1100.93 208.491 1102.08 215.776 1102.08 224.429V230.466H1030.6V218.151H1087.59C1087.59 212.919 1086.54 208.25 1084.45 204.145C1082.4 200.04 1079.46 196.8 1075.63 194.425C1071.85 192.051 1067.38 190.864 1062.23 190.864C1056.56 190.864 1051.65 192.272 1047.5 195.089C1043.4 197.866 1040.24 201.489 1038.02 205.956C1035.81 210.423 1034.7 215.213 1034.7 220.324V228.534C1034.7 235.537 1035.91 241.473 1038.33 246.343C1040.78 251.173 1044.18 254.855 1048.53 257.391C1052.88 259.886 1057.93 261.134 1063.68 261.134C1067.42 261.134 1070.8 260.61 1073.82 259.564C1076.88 258.477 1079.52 256.867 1081.73 254.734C1083.95 252.561 1085.66 249.865 1086.86 246.645L1100.63 250.509C1099.18 255.177 1096.74 259.282 1093.32 262.824C1089.9 266.325 1085.68 269.062 1080.65 271.034C1075.61 272.966 1069.96 273.932 1063.68 273.932Z" fill="white"/>
    <path d="M479.984 336.182V406H473.916V336.182H479.984ZM510.666 407.193C507.507 407.193 504.62 406.58 502.007 405.352C499.393 404.102 497.313 402.307 495.768 399.966C494.222 397.602 493.45 394.739 493.45 391.375C493.45 388.784 493.938 386.602 494.916 384.83C495.893 383.057 497.279 381.602 499.075 380.466C500.87 379.33 502.995 378.432 505.45 377.773C507.904 377.114 510.609 376.602 513.563 376.239C516.495 375.875 518.972 375.557 520.995 375.284C523.041 375.011 524.597 374.58 525.666 373.989C526.734 373.398 527.268 372.443 527.268 371.125V369.898C527.268 366.33 526.2 363.523 524.063 361.477C521.95 359.409 518.904 358.375 514.927 358.375C511.154 358.375 508.075 359.205 505.688 360.864C503.325 362.523 501.666 364.477 500.711 366.727L494.95 364.648C496.132 361.784 497.768 359.5 499.859 357.795C501.95 356.068 504.291 354.83 506.882 354.08C509.472 353.307 512.097 352.92 514.757 352.92C516.757 352.92 518.836 353.182 520.995 353.705C523.177 354.227 525.2 355.136 527.063 356.432C528.927 357.705 530.438 359.489 531.597 361.784C532.757 364.057 533.336 366.943 533.336 370.443V406H527.268V397.716H526.893C526.166 399.261 525.086 400.761 523.654 402.216C522.222 403.67 520.427 404.864 518.268 405.795C516.109 406.727 513.575 407.193 510.666 407.193ZM511.484 401.636C514.711 401.636 517.507 400.92 519.87 399.489C522.234 398.057 524.052 396.159 525.325 393.795C526.62 391.409 527.268 388.784 527.268 385.92V378.352C526.813 378.784 526.052 379.17 524.984 379.511C523.938 379.852 522.722 380.159 521.336 380.432C519.972 380.682 518.609 380.898 517.245 381.08C515.882 381.261 514.654 381.42 513.563 381.557C510.609 381.92 508.086 382.489 505.995 383.261C503.904 384.034 502.302 385.102 501.188 386.466C500.075 387.807 499.518 389.534 499.518 391.648C499.518 394.83 500.654 397.295 502.927 399.045C505.2 400.773 508.052 401.636 511.484 401.636ZM555.546 373.273V406H549.478V353.636H555.376V361.852H555.921C557.149 359.17 559.058 357.023 561.649 355.409C564.262 353.773 567.49 352.955 571.33 352.955C574.853 352.955 577.944 353.693 580.603 355.17C583.285 356.625 585.365 358.773 586.842 361.614C588.342 364.455 589.092 367.943 589.092 372.08V406H583.024V372.455C583.024 368.159 581.819 364.761 579.41 362.261C577.024 359.761 573.819 358.511 569.796 358.511C567.046 358.511 564.603 359.102 562.467 360.284C560.33 361.466 558.637 363.17 557.387 365.398C556.16 367.602 555.546 370.227 555.546 373.273ZM625.049 426.727C621.481 426.727 618.356 426.261 615.674 425.33C612.992 424.42 610.731 423.17 608.89 421.58C607.049 419.989 605.617 418.205 604.595 416.227L609.572 412.955C610.322 414.273 611.322 415.568 612.572 416.841C613.845 418.114 615.492 419.17 617.515 420.011C619.561 420.852 622.072 421.273 625.049 421.273C629.686 421.273 633.424 420.114 636.265 417.795C639.129 415.477 640.561 411.875 640.561 406.989V395.193H640.015C639.311 396.784 638.299 398.375 636.981 399.966C635.663 401.534 633.936 402.841 631.799 403.886C629.686 404.932 627.061 405.455 623.924 405.455C619.742 405.455 616.026 404.42 612.776 402.352C609.549 400.284 607.004 397.33 605.14 393.489C603.299 389.625 602.379 385.023 602.379 379.682C602.379 374.386 603.276 369.727 605.072 365.705C606.89 361.682 609.424 358.545 612.674 356.295C615.924 354.045 619.708 352.92 624.026 352.92C627.231 352.92 629.89 353.489 632.004 354.625C634.117 355.739 635.811 357.125 637.083 358.784C638.379 360.443 639.39 362.057 640.117 363.625H640.731V353.636H646.663V407.364C646.663 411.795 645.72 415.443 643.833 418.307C641.947 421.17 639.379 423.284 636.129 424.648C632.879 426.034 629.186 426.727 625.049 426.727ZM624.64 399.898C628.004 399.898 630.879 399.091 633.265 397.477C635.651 395.841 637.481 393.5 638.754 390.455C640.026 387.409 640.663 383.784 640.663 379.58C640.663 375.489 640.038 371.864 638.788 368.705C637.538 365.523 635.72 363.023 633.333 361.205C630.97 359.364 628.072 358.443 624.64 358.443C621.14 358.443 618.186 359.386 615.776 361.273C613.367 363.159 611.549 365.705 610.322 368.909C609.095 372.091 608.481 375.648 608.481 379.58C608.481 383.58 609.106 387.114 610.356 390.182C611.606 393.227 613.436 395.614 615.845 397.341C618.254 399.045 621.186 399.898 624.64 399.898ZM696.001 385.989V353.636H702.069V406H696.001V397.307H695.524C694.296 399.989 692.353 402.227 689.694 404.023C687.035 405.795 683.785 406.682 679.944 406.682C676.603 406.682 673.637 405.955 671.046 404.5C668.455 403.023 666.421 400.864 664.944 398.023C663.467 395.182 662.728 391.693 662.728 387.557V353.636H668.796V387.182C668.796 391.273 670.001 394.568 672.41 397.068C674.819 399.545 677.91 400.784 681.683 400.784C684.046 400.784 686.319 400.216 688.501 399.08C690.683 397.943 692.478 396.284 693.887 394.102C695.296 391.898 696.001 389.193 696.001 385.989ZM732.759 407.193C729.6 407.193 726.714 406.58 724.1 405.352C721.487 404.102 719.407 402.307 717.862 399.966C716.316 397.602 715.544 394.739 715.544 391.375C715.544 388.784 716.032 386.602 717.009 384.83C717.987 383.057 719.373 381.602 721.169 380.466C722.964 379.33 725.089 378.432 727.544 377.773C729.998 377.114 732.703 376.602 735.657 376.239C738.589 375.875 741.066 375.557 743.089 375.284C745.134 375.011 746.691 374.58 747.759 373.989C748.828 373.398 749.362 372.443 749.362 371.125V369.898C749.362 366.33 748.294 363.523 746.157 361.477C744.044 359.409 740.998 358.375 737.021 358.375C733.248 358.375 730.169 359.205 727.782 360.864C725.419 362.523 723.759 364.477 722.805 366.727L717.044 364.648C718.225 361.784 719.862 359.5 721.953 357.795C724.044 356.068 726.384 354.83 728.975 354.08C731.566 353.307 734.191 352.92 736.85 352.92C738.85 352.92 740.93 353.182 743.089 353.705C745.271 354.227 747.294 355.136 749.157 356.432C751.021 357.705 752.532 359.489 753.691 361.784C754.85 364.057 755.43 366.943 755.43 370.443V406H749.362V397.716H748.987C748.259 399.261 747.18 400.761 745.748 402.216C744.316 403.67 742.521 404.864 740.362 405.795C738.203 406.727 735.669 407.193 732.759 407.193ZM733.578 401.636C736.805 401.636 739.6 400.92 741.964 399.489C744.328 398.057 746.146 396.159 747.419 393.795C748.714 391.409 749.362 388.784 749.362 385.92V378.352C748.907 378.784 748.146 379.17 747.078 379.511C746.032 379.852 744.816 380.159 743.43 380.432C742.066 380.682 740.703 380.898 739.339 381.08C737.975 381.261 736.748 381.42 735.657 381.557C732.703 381.92 730.18 382.489 728.089 383.261C725.998 384.034 724.396 385.102 723.282 386.466C722.169 387.807 721.612 389.534 721.612 391.648C721.612 394.83 722.748 397.295 725.021 399.045C727.294 400.773 730.146 401.636 733.578 401.636ZM791.549 426.727C787.981 426.727 784.856 426.261 782.174 425.33C779.492 424.42 777.231 423.17 775.39 421.58C773.549 419.989 772.117 418.205 771.095 416.227L776.072 412.955C776.822 414.273 777.822 415.568 779.072 416.841C780.345 418.114 781.992 419.17 784.015 420.011C786.061 420.852 788.572 421.273 791.549 421.273C796.186 421.273 799.924 420.114 802.765 417.795C805.629 415.477 807.061 411.875 807.061 406.989V395.193H806.515C805.811 396.784 804.799 398.375 803.481 399.966C802.163 401.534 800.436 402.841 798.299 403.886C796.186 404.932 793.561 405.455 790.424 405.455C786.242 405.455 782.526 404.42 779.276 402.352C776.049 400.284 773.504 397.33 771.64 393.489C769.799 389.625 768.879 385.023 768.879 379.682C768.879 374.386 769.776 369.727 771.572 365.705C773.39 361.682 775.924 358.545 779.174 356.295C782.424 354.045 786.208 352.92 790.526 352.92C793.731 352.92 796.39 353.489 798.504 354.625C800.617 355.739 802.311 357.125 803.583 358.784C804.879 360.443 805.89 362.057 806.617 363.625H807.231V353.636H813.163V407.364C813.163 411.795 812.22 415.443 810.333 418.307C808.447 421.17 805.879 423.284 802.629 424.648C799.379 426.034 795.686 426.727 791.549 426.727ZM791.14 399.898C794.504 399.898 797.379 399.091 799.765 397.477C802.151 395.841 803.981 393.5 805.254 390.455C806.526 387.409 807.163 383.784 807.163 379.58C807.163 375.489 806.538 371.864 805.288 368.705C804.038 365.523 802.22 363.023 799.833 361.205C797.47 359.364 794.572 358.443 791.14 358.443C787.64 358.443 784.686 359.386 782.276 361.273C779.867 363.159 778.049 365.705 776.822 368.909C775.595 372.091 774.981 375.648 774.981 379.58C774.981 383.58 775.606 387.114 776.856 390.182C778.106 393.227 779.936 395.614 782.345 397.341C784.754 399.045 787.686 399.898 791.14 399.898ZM850.399 407.091C845.512 407.091 841.285 405.955 837.717 403.682C834.149 401.386 831.387 398.216 829.433 394.17C827.501 390.102 826.535 385.42 826.535 380.125C826.535 374.852 827.501 370.17 829.433 366.08C831.387 361.966 834.08 358.75 837.512 356.432C840.967 354.091 844.955 352.92 849.478 352.92C852.319 352.92 855.058 353.443 857.694 354.489C860.33 355.511 862.694 357.091 864.785 359.227C866.899 361.341 868.569 364.011 869.796 367.239C871.024 370.443 871.637 374.239 871.637 378.625V381.625H830.728V376.273H865.433C865.433 372.909 864.751 369.886 863.387 367.205C862.046 364.5 860.171 362.364 857.762 360.795C855.376 359.227 852.615 358.443 849.478 358.443C846.16 358.443 843.24 359.33 840.717 361.102C838.194 362.875 836.217 365.216 834.785 368.125C833.376 371.034 832.66 374.216 832.637 377.67V380.875C832.637 385.034 833.353 388.67 834.785 391.784C836.24 394.875 838.296 397.273 840.955 398.977C843.615 400.682 846.762 401.534 850.399 401.534C852.876 401.534 855.046 401.148 856.91 400.375C858.796 399.602 860.376 398.568 861.649 397.273C862.944 395.955 863.921 394.511 864.58 392.943L870.342 394.818C869.546 397.023 868.24 399.057 866.421 400.92C864.626 402.784 862.376 404.284 859.671 405.42C856.99 406.534 853.899 407.091 850.399 407.091ZM932.464 407.091C927.782 407.091 923.703 405.92 920.225 403.58C916.771 401.239 914.089 398.034 912.18 393.966C910.271 389.898 909.316 385.261 909.316 380.057C909.316 374.807 910.282 370.136 912.214 366.045C914.169 361.955 916.873 358.75 920.328 356.432C923.782 354.091 927.794 352.92 932.362 352.92C935.862 352.92 939.032 353.602 941.873 354.966C944.714 356.307 947.055 358.205 948.896 360.659C950.759 363.091 951.93 365.932 952.407 369.182H946.271C945.634 366.227 944.1 363.705 941.669 361.614C939.259 359.5 936.191 358.443 932.464 358.443C929.123 358.443 926.169 359.352 923.6 361.17C921.032 362.966 919.021 365.477 917.566 368.705C916.134 371.909 915.419 375.625 915.419 379.852C915.419 384.102 916.123 387.864 917.532 391.136C918.941 394.386 920.919 396.932 923.464 398.773C926.032 400.614 929.032 401.534 932.464 401.534C934.782 401.534 936.896 401.102 938.805 400.239C940.737 399.352 942.35 398.102 943.646 396.489C944.964 394.875 945.85 392.955 946.305 390.727H952.441C951.987 393.886 950.862 396.705 949.066 399.182C947.294 401.636 944.987 403.568 942.146 404.977C939.328 406.386 936.1 407.091 932.464 407.091ZM986.617 407.091C981.731 407.091 977.504 405.955 973.936 403.682C970.367 401.386 967.606 398.216 965.651 394.17C963.72 390.102 962.754 385.42 962.754 380.125C962.754 374.852 963.72 370.17 965.651 366.08C967.606 361.966 970.299 358.75 973.731 356.432C977.186 354.091 981.174 352.92 985.697 352.92C988.538 352.92 991.276 353.443 993.913 354.489C996.549 355.511 998.913 357.091 1001 359.227C1003.12 361.341 1004.79 364.011 1006.02 367.239C1007.24 370.443 1007.86 374.239 1007.86 378.625V381.625H966.947V376.273H1001.65C1001.65 372.909 1000.97 369.886 999.606 367.205C998.265 364.5 996.39 362.364 993.981 360.795C991.595 359.227 988.833 358.443 985.697 358.443C982.379 358.443 979.458 359.33 976.936 361.102C974.413 362.875 972.436 365.216 971.004 368.125C969.595 371.034 968.879 374.216 968.856 377.67V380.875C968.856 385.034 969.572 388.67 971.004 391.784C972.458 394.875 974.515 397.273 977.174 398.977C979.833 400.682 982.981 401.534 986.617 401.534C989.095 401.534 991.265 401.148 993.129 400.375C995.015 399.602 996.595 398.568 997.867 397.273C999.163 395.955 1000.14 394.511 1000.8 392.943L1006.56 394.818C1005.77 397.023 1004.46 399.057 1002.64 400.92C1000.84 402.784 998.595 404.284 995.89 405.42C993.208 406.534 990.117 407.091 986.617 407.091ZM1027.3 373.273V406H1021.23V353.636H1027.13V361.852H1027.67C1028.9 359.17 1030.81 357.023 1033.4 355.409C1036.01 353.773 1039.24 352.955 1043.08 352.955C1046.6 352.955 1049.69 353.693 1052.35 355.17C1055.03 356.625 1057.11 358.773 1058.59 361.614C1060.09 364.455 1060.84 367.943 1060.84 372.08V406H1054.77V372.455C1054.77 368.159 1053.57 364.761 1051.16 362.261C1048.77 359.761 1045.57 358.511 1041.55 358.511C1038.8 358.511 1036.35 359.102 1034.22 360.284C1032.08 361.466 1030.39 363.17 1029.14 365.398C1027.91 367.602 1027.3 370.227 1027.3 373.273ZM1097.45 353.636V358.92H1072.46V353.636H1097.45ZM1080.27 341.091H1086.37V392.33C1086.37 394.511 1086.74 396.227 1087.49 397.477C1088.24 398.705 1089.22 399.58 1090.42 400.102C1091.63 400.602 1092.91 400.852 1094.28 400.852C1095.07 400.852 1095.75 400.807 1096.32 400.716C1096.89 400.602 1097.39 400.489 1097.82 400.375L1099.12 405.864C1098.53 406.091 1097.8 406.295 1096.94 406.477C1096.07 406.682 1095 406.784 1093.73 406.784C1091.5 406.784 1089.36 406.295 1087.29 405.318C1085.24 404.341 1083.56 402.886 1082.24 400.955C1080.92 399.023 1080.27 396.625 1080.27 393.761V341.091ZM1131.84 407.091C1126.95 407.091 1122.72 405.955 1119.15 403.682C1115.59 401.386 1112.82 398.216 1110.87 394.17C1108.94 390.102 1107.97 385.42 1107.97 380.125C1107.97 374.852 1108.94 370.17 1110.87 366.08C1112.82 361.966 1115.52 358.75 1118.95 356.432C1122.4 354.091 1126.39 352.92 1130.92 352.92C1133.76 352.92 1136.5 353.443 1139.13 354.489C1141.77 355.511 1144.13 357.091 1146.22 359.227C1148.34 361.341 1150.01 364.011 1151.23 367.239C1152.46 370.443 1153.07 374.239 1153.07 378.625V381.625H1112.17V376.273H1146.87C1146.87 372.909 1146.19 369.886 1144.82 367.205C1143.48 364.5 1141.61 362.364 1139.2 360.795C1136.81 359.227 1134.05 358.443 1130.92 358.443C1127.6 358.443 1124.68 359.33 1122.15 361.102C1119.63 362.875 1117.65 365.216 1116.22 368.125C1114.81 371.034 1114.1 374.216 1114.07 377.67V380.875C1114.07 385.034 1114.79 388.67 1116.22 391.784C1117.68 394.875 1119.73 397.273 1122.39 398.977C1125.05 400.682 1128.2 401.534 1131.84 401.534C1134.31 401.534 1136.48 401.148 1138.35 400.375C1140.23 399.602 1141.81 398.568 1143.09 397.273C1144.38 395.955 1145.36 394.511 1146.02 392.943L1151.78 394.818C1150.98 397.023 1149.68 399.057 1147.86 400.92C1146.06 402.784 1143.81 404.284 1141.11 405.42C1138.43 406.534 1135.34 407.091 1131.84 407.091ZM1166.45 406V353.636H1172.34V361.682H1172.79C1173.83 359.045 1175.65 356.92 1178.24 355.307C1180.86 353.67 1183.81 352.852 1187.11 352.852C1187.61 352.852 1188.16 352.864 1188.78 352.886C1189.39 352.909 1189.9 352.932 1190.31 352.955V359.125C1190.04 359.08 1189.56 359.011 1188.88 358.92C1188.2 358.83 1187.46 358.784 1186.66 358.784C1183.94 358.784 1181.5 359.364 1179.37 360.523C1177.25 361.659 1175.58 363.239 1174.36 365.261C1173.13 367.284 1172.52 369.591 1172.52 372.182V406H1166.45Z" fill="white"/>
</svg>
